<svg xmlns="http://www.w3.org/2000/svg" viewBox="0 0 1440 778" fill="none">
<path xmlns="http://www.w3.org/2000/svg" d="M179.836 287.766L178.348 296.214H169.324L164.812 321.75H154.156L158.668 296.214H149.74L151.228 287.766H179.836ZM193.959 294.342C197.543 294.342 200.391 295.302 202.503 297.222C204.615 299.11 205.671 301.702 205.671 304.998C205.671 305.926 205.575 306.918 205.383 307.974C205.159 309.03 204.983 309.734 204.855 310.086H187.767C187.735 310.278 187.719 310.55 187.719 310.902C187.719 312.694 188.487 313.59 190.023 313.59C191.207 313.59 192.135 313.062 192.807 312.006H204.087C203.383 313.926 202.279 315.654 200.775 317.19C199.271 318.694 197.495 319.894 195.447 320.79C193.431 321.654 191.303 322.086 189.063 322.086C185.479 322.086 182.631 321.142 180.519 319.254C178.439 317.334 177.399 314.678 177.399 311.286C177.399 310.294 177.495 309.27 177.687 308.214C178.199 305.398 179.223 302.95 180.759 300.87C182.295 298.758 184.199 297.142 186.471 296.022C188.775 294.902 191.271 294.342 193.959 294.342ZM194.967 305.718C194.999 305.558 195.015 305.318 195.015 304.998C195.015 304.23 194.775 303.654 194.295 303.27C193.815 302.886 193.207 302.694 192.471 302.694C190.551 302.694 189.255 303.702 188.583 305.718H194.967ZM207.265 308.214C207.777 305.398 208.801 302.95 210.337 300.87C211.873 298.758 213.777 297.142 216.049 296.022C218.353 294.902 220.849 294.342 223.537 294.342C227.057 294.342 229.841 295.334 231.889 297.318C233.969 299.302 235.025 302.054 235.057 305.574H223.777C223.553 304.166 222.849 303.462 221.665 303.462C220.801 303.462 220.049 303.862 219.409 304.662C218.801 305.462 218.353 306.646 218.065 308.214C217.937 309.11 217.873 309.702 217.873 309.99C217.873 310.982 218.065 311.734 218.449 312.246C218.833 312.726 219.361 312.966 220.033 312.966C221.249 312.966 222.177 312.262 222.817 310.854H234.097C232.849 314.374 230.833 317.126 228.049 319.11C225.297 321.094 222.161 322.086 218.641 322.086C215.057 322.086 212.209 321.142 210.097 319.254C208.017 317.334 206.977 314.678 206.977 311.286C206.977 310.294 207.073 309.27 207.265 308.214ZM259.315 294.486C261.939 294.486 263.955 295.254 265.363 296.79C266.771 298.294 267.475 300.374 267.475 303.03C267.475 303.99 267.379 304.998 267.187 306.054L264.403 321.75H253.795L256.339 307.398C256.403 306.886 256.435 306.534 256.435 306.342C256.435 305.35 256.147 304.582 255.571 304.038C255.027 303.494 254.259 303.222 253.267 303.222C252.083 303.222 251.091 303.59 250.291 304.326C249.523 305.062 249.011 306.086 248.755 307.398V307.35L246.211 321.75H235.555L241.843 286.23H252.499L250.291 298.758C251.347 297.478 252.643 296.454 254.179 295.686C255.715 294.886 257.427 294.486 259.315 294.486ZM293.836 287.766L287.836 321.75H277.18L283.18 287.766H293.836ZM316.408 294.486C319.032 294.486 321.048 295.254 322.456 296.79C323.864 298.294 324.568 300.374 324.568 303.03C324.568 303.99 324.472 304.998 324.28 306.054L321.496 321.75H310.888L313.432 307.398C313.496 306.886 313.528 306.534 313.528 306.342C313.528 305.35 313.24 304.582 312.664 304.038C312.12 303.494 311.352 303.222 310.36 303.222C309.208 303.222 308.232 303.59 307.432 304.326C306.632 305.062 306.104 306.07 305.848 307.35L303.304 321.75H292.648L297.448 294.678H308.104L307.384 298.758C308.44 297.478 309.736 296.454 311.272 295.686C312.808 294.886 314.52 294.486 316.408 294.486ZM349.877 294.486C352.501 294.486 354.517 295.254 355.925 296.79C357.333 298.294 358.037 300.374 358.037 303.03C358.037 303.99 357.941 304.998 357.749 306.054L354.965 321.75H344.357L346.901 307.398C346.965 306.886 346.997 306.534 346.997 306.342C346.997 305.35 346.709 304.582 346.133 304.038C345.589 303.494 344.821 303.222 343.829 303.222C342.677 303.222 341.701 303.59 340.901 304.326C340.101 305.062 339.573 306.07 339.317 307.35L336.773 321.75H326.117L330.917 294.678H341.573L340.853 298.758C341.909 297.478 343.205 296.454 344.741 295.686C346.277 294.886 347.989 294.486 349.877 294.486ZM372.402 322.086C370.002 322.086 367.89 321.622 366.066 320.694C364.242 319.766 362.818 318.454 361.794 316.758C360.77 315.03 360.258 313.03 360.258 310.758C360.258 307.622 360.994 304.806 362.466 302.31C363.97 299.814 366.018 297.862 368.61 296.454C371.202 295.046 374.098 294.342 377.298 294.342C379.698 294.342 381.81 294.822 383.634 295.782C385.458 296.71 386.882 298.038 387.906 299.766C388.93 301.462 389.442 303.446 389.442 305.718C389.442 308.854 388.706 311.67 387.234 314.166C385.762 316.662 383.73 318.614 381.138 320.022C378.546 321.398 375.634 322.086 372.402 322.086ZM374.034 312.87C375.41 312.87 376.498 312.246 377.298 310.998C378.098 309.75 378.498 308.358 378.498 306.822C378.498 305.734 378.226 304.918 377.682 304.374C377.17 303.83 376.498 303.558 375.666 303.558C374.29 303.558 373.202 304.182 372.402 305.43C371.602 306.678 371.202 308.07 371.202 309.606C371.202 310.694 371.458 311.51 371.97 312.054C372.482 312.598 373.17 312.87 374.034 312.87ZM405.606 311.622L412.95 294.678H424.278L410.454 321.75H397.158L392.934 294.678H404.262L405.606 311.622ZM423.265 308.214C423.777 305.366 424.705 302.902 426.049 300.822C427.393 298.71 429.009 297.11 430.897 296.022C432.785 294.902 434.785 294.342 436.897 294.342C438.657 294.342 440.113 294.71 441.265 295.446C442.417 296.15 443.217 297.126 443.665 298.374L444.337 294.678H454.945L450.145 321.75H439.537L440.209 318.054C439.313 319.302 438.161 320.294 436.753 321.03C435.345 321.734 433.761 322.086 432.001 322.086C429.281 322.086 427.089 321.174 425.425 319.35C423.761 317.526 422.929 314.998 422.929 311.766C422.929 310.55 423.041 309.366 423.265 308.214ZM441.937 308.214C442.001 307.926 442.033 307.542 442.033 307.062C442.033 305.974 441.745 305.142 441.169 304.566C440.593 303.958 439.809 303.654 438.817 303.654C437.665 303.654 436.641 304.054 435.745 304.854C434.881 305.654 434.321 306.774 434.065 308.214C434.001 308.502 433.969 308.886 433.969 309.366C433.969 310.454 434.257 311.302 434.833 311.91C435.409 312.486 436.193 312.774 437.185 312.774C438.337 312.774 439.345 312.374 440.209 311.574C441.105 310.774 441.681 309.654 441.937 308.214ZM469.186 310.854C469.154 310.982 469.138 311.142 469.138 311.334C469.138 312.23 469.714 312.678 470.866 312.678H473.41L471.778 321.75H467.746C461.442 321.75 458.29 319.078 458.29 313.734C458.29 312.774 458.386 311.75 458.578 310.662L459.826 303.558H456.466L458.05 294.678H461.41L462.562 288.15H473.218L472.066 294.678H476.482L474.898 303.558H470.482L469.186 310.854ZM486.396 292.518C484.732 292.518 483.42 292.118 482.46 291.318C481.532 290.518 481.068 289.478 481.068 288.198C481.068 287.078 481.372 286.038 481.98 285.078C482.588 284.118 483.436 283.366 484.524 282.822C485.644 282.246 486.876 281.958 488.22 281.958C489.852 281.958 491.132 282.374 492.06 283.206C493.02 284.006 493.5 285.062 493.5 286.374C493.5 287.494 493.196 288.518 492.588 289.446C491.98 290.374 491.132 291.126 490.044 291.702C488.956 292.246 487.74 292.518 486.396 292.518ZM491.292 294.678L486.492 321.75H475.836L480.636 294.678H491.292ZM504.121 322.086C501.721 322.086 499.609 321.622 497.785 320.694C495.961 319.766 494.537 318.454 493.513 316.758C492.489 315.03 491.977 313.03 491.977 310.758C491.977 307.622 492.713 304.806 494.185 302.31C495.689 299.814 497.737 297.862 500.329 296.454C502.921 295.046 505.817 294.342 509.017 294.342C511.417 294.342 513.529 294.822 515.353 295.782C517.177 296.71 518.601 298.038 519.625 299.766C520.649 301.462 521.161 303.446 521.161 305.718C521.161 308.854 520.425 311.67 518.953 314.166C517.481 316.662 515.449 318.614 512.857 320.022C510.265 321.398 507.353 322.086 504.121 322.086ZM505.753 312.87C507.129 312.87 508.217 312.246 509.017 310.998C509.817 309.75 510.217 308.358 510.217 306.822C510.217 305.734 509.945 304.918 509.401 304.374C508.889 303.83 508.217 303.558 507.385 303.558C506.009 303.558 504.921 304.182 504.121 305.43C503.321 306.678 502.921 308.07 502.921 309.606C502.921 310.694 503.177 311.51 503.689 312.054C504.201 312.598 504.889 312.87 505.753 312.87ZM545.58 294.486C548.204 294.486 550.22 295.254 551.628 296.79C553.036 298.294 553.74 300.374 553.74 303.03C553.74 303.99 553.644 304.998 553.452 306.054L550.668 321.75H540.06L542.604 307.398C542.668 306.886 542.7 306.534 542.7 306.342C542.7 305.35 542.412 304.582 541.836 304.038C541.292 303.494 540.524 303.222 539.532 303.222C538.38 303.222 537.404 303.59 536.604 304.326C535.804 305.062 535.276 306.07 535.02 307.35L532.476 321.75H521.82L526.62 294.678H537.276L536.556 298.758C537.612 297.478 538.908 296.454 540.444 295.686C541.98 294.886 543.692 294.486 545.58 294.486ZM595.173 299.43C594.789 301.574 593.957 303.526 592.677 305.286C591.397 307.014 589.685 308.39 587.541 309.414C585.429 310.438 582.997 310.95 580.245 310.95H576.021L574.101 321.75H563.445L569.445 287.766H584.325C587.941 287.766 590.693 288.582 592.581 290.214C594.469 291.846 595.413 294.086 595.413 296.934C595.413 297.638 595.333 298.47 595.173 299.43ZM580.533 302.55C582.709 302.55 583.989 301.51 584.373 299.43C584.437 299.046 584.469 298.774 584.469 298.614C584.469 297.078 583.525 296.31 581.637 296.31H578.613L577.509 302.55H580.533ZM595.577 308.214C596.089 305.366 597.017 302.902 598.361 300.822C599.705 298.71 601.321 297.11 603.209 296.022C605.097 294.902 607.097 294.342 609.209 294.342C610.969 294.342 612.425 294.71 613.577 295.446C614.729 296.15 615.529 297.126 615.977 298.374L616.649 294.678H627.257L622.457 321.75H611.849L612.521 318.054C611.625 319.302 610.473 320.294 609.065 321.03C607.657 321.734 606.073 322.086 604.313 322.086C601.593 322.086 599.401 321.174 597.737 319.35C596.073 317.526 595.241 314.998 595.241 311.766C595.241 310.55 595.353 309.366 595.577 308.214ZM614.249 308.214C614.313 307.926 614.345 307.542 614.345 307.062C614.345 305.974 614.057 305.142 613.481 304.566C612.905 303.958 612.121 303.654 611.129 303.654C609.977 303.654 608.953 304.054 608.057 304.854C607.193 305.654 606.633 306.774 606.377 308.214C606.313 308.502 606.281 308.886 606.281 309.366C606.281 310.454 606.569 311.302 607.145 311.91C607.721 312.486 608.505 312.774 609.497 312.774C610.649 312.774 611.657 312.374 612.521 311.574C613.417 310.774 613.993 309.654 614.249 308.214ZM642.026 298.374C642.922 297.126 644.058 296.15 645.434 295.446C646.842 294.71 648.426 294.342 650.186 294.342C652.906 294.342 655.098 295.254 656.762 297.078C658.426 298.902 659.258 301.43 659.258 304.662C659.258 305.878 659.146 307.062 658.922 308.214C658.41 311.062 657.482 313.542 656.138 315.654C654.794 317.734 653.178 319.334 651.29 320.454C649.402 321.542 647.402 322.086 645.29 322.086C643.53 322.086 642.074 321.734 640.922 321.03C639.802 320.294 639.018 319.302 638.57 318.054L635.642 334.71H624.986L632.042 294.678H642.698L642.026 298.374ZM648.122 308.214C648.186 307.926 648.218 307.542 648.218 307.062C648.218 305.974 647.93 305.142 647.354 304.566C646.778 303.958 645.994 303.654 645.002 303.654C643.85 303.654 642.826 304.054 641.93 304.854C641.066 305.654 640.506 306.774 640.25 308.214C640.186 308.502 640.154 308.886 640.154 309.366C640.154 310.454 640.442 311.302 641.018 311.91C641.594 312.486 642.378 312.774 643.37 312.774C644.522 312.774 645.53 312.374 646.394 311.574C647.29 310.774 647.866 309.654 648.122 308.214ZM677.099 294.342C680.683 294.342 683.531 295.302 685.643 297.222C687.755 299.11 688.811 301.702 688.811 304.998C688.811 305.926 688.715 306.918 688.523 307.974C688.299 309.03 688.123 309.734 687.995 310.086H670.907C670.875 310.278 670.859 310.55 670.859 310.902C670.859 312.694 671.627 313.59 673.163 313.59C674.347 313.59 675.275 313.062 675.947 312.006H687.227C686.523 313.926 685.419 315.654 683.915 317.19C682.411 318.694 680.635 319.894 678.587 320.79C676.571 321.654 674.443 322.086 672.203 322.086C668.619 322.086 665.771 321.142 663.659 319.254C661.579 317.334 660.539 314.678 660.539 311.286C660.539 310.294 660.635 309.27 660.827 308.214C661.339 305.398 662.363 302.95 663.899 300.87C665.435 298.758 667.339 297.142 669.611 296.022C671.915 294.902 674.411 294.342 677.099 294.342ZM678.107 305.718C678.139 305.558 678.155 305.318 678.155 304.998C678.155 304.23 677.915 303.654 677.435 303.27C676.955 302.886 676.347 302.694 675.611 302.694C673.691 302.694 672.395 303.702 671.723 305.718H678.107ZM704.037 299.67C705.413 298.102 706.949 296.854 708.645 295.926C710.373 294.966 712.085 294.486 713.781 294.486L711.813 305.862H708.789C706.773 305.862 705.221 306.214 704.133 306.918C703.077 307.622 702.389 308.87 702.069 310.662L700.101 321.75H689.445L694.245 294.678H704.901L704.037 299.67ZM745.352 304.95L754.28 321.75H741.656L737 312.918L730.232 321.75H718.088L732.344 304.23L723.608 287.766H736.232L740.744 296.262L747.224 287.766H759.368L745.352 304.95ZM766.884 304.71C767.46 301.35 768.66 298.358 770.484 295.734C772.308 293.11 774.612 291.078 777.396 289.638C780.18 288.166 783.284 287.43 786.708 287.43C789.652 287.43 792.18 287.99 794.292 289.11C796.436 290.198 798.068 291.75 799.188 293.766C800.308 295.782 800.852 298.134 800.82 300.822H789.588C789.268 299.702 788.692 298.838 787.86 298.23C787.028 297.59 786.004 297.27 784.788 297.27C782.996 297.27 781.46 297.942 780.18 299.286C778.9 300.63 778.068 302.438 777.684 304.71C777.556 305.35 777.492 306.038 777.492 306.774C777.492 308.438 777.892 309.75 778.692 310.71C779.524 311.67 780.692 312.15 782.196 312.15C783.412 312.15 784.548 311.846 785.604 311.238C786.66 310.598 787.54 309.718 788.244 308.598H799.476C798.516 311.286 797.124 313.638 795.3 315.654C793.476 317.67 791.3 319.238 788.772 320.358C786.276 321.446 783.556 321.99 780.612 321.99C777.636 321.99 775.092 321.446 772.98 320.358C770.868 319.238 769.268 317.67 768.18 315.654C767.092 313.606 766.548 311.238 766.548 308.55C766.548 307.238 766.66 305.958 766.884 304.71ZM818.193 294.342C821.777 294.342 824.625 295.302 826.737 297.222C828.849 299.11 829.905 301.702 829.905 304.998C829.905 305.926 829.809 306.918 829.617 307.974C829.393 309.03 829.217 309.734 829.089 310.086H812.001C811.969 310.278 811.953 310.55 811.953 310.902C811.953 312.694 812.721 313.59 814.257 313.59C815.441 313.59 816.369 313.062 817.041 312.006H828.321C827.617 313.926 826.513 315.654 825.009 317.19C823.505 318.694 821.729 319.894 819.681 320.79C817.665 321.654 815.537 322.086 813.297 322.086C809.713 322.086 806.865 321.142 804.753 319.254C802.673 317.334 801.633 314.678 801.633 311.286C801.633 310.294 801.729 309.27 801.921 308.214C802.433 305.398 803.457 302.95 804.993 300.87C806.529 298.758 808.433 297.142 810.705 296.022C813.009 294.902 815.505 294.342 818.193 294.342ZM819.201 305.718C819.233 305.558 819.249 305.318 819.249 304.998C819.249 304.23 819.009 303.654 818.529 303.27C818.049 302.886 817.441 302.694 816.705 302.694C814.785 302.694 813.489 303.702 812.817 305.718H819.201ZM854.299 294.486C856.923 294.486 858.939 295.254 860.347 296.79C861.755 298.294 862.459 300.374 862.459 303.03C862.459 303.99 862.363 304.998 862.171 306.054L859.387 321.75H848.779L851.323 307.398C851.387 306.886 851.419 306.534 851.419 306.342C851.419 305.35 851.131 304.582 850.555 304.038C850.011 303.494 849.243 303.222 848.251 303.222C847.099 303.222 846.123 303.59 845.323 304.326C844.523 305.062 843.995 306.07 843.739 307.35L841.195 321.75H830.539L835.339 294.678H845.995L845.275 298.758C846.331 297.478 847.627 296.454 849.163 295.686C850.699 294.886 852.411 294.486 854.299 294.486ZM864.968 308.214C865.48 305.366 866.408 302.902 867.752 300.822C869.096 298.71 870.712 297.11 872.6 296.022C874.488 294.902 876.488 294.342 878.6 294.342C880.36 294.342 881.8 294.71 882.92 295.446C884.072 296.15 884.872 297.126 885.32 298.374L887.48 286.23H898.136L891.848 321.75H881.192L881.864 318.054C880.968 319.302 879.816 320.294 878.408 321.03C877.032 321.734 875.464 322.086 873.704 322.086C870.984 322.086 868.792 321.174 867.128 319.35C865.464 317.526 864.632 314.998 864.632 311.766C864.632 310.55 864.744 309.366 864.968 308.214ZM883.64 308.214C883.704 307.926 883.736 307.542 883.736 307.062C883.736 305.974 883.448 305.142 882.872 304.566C882.296 303.958 881.512 303.654 880.52 303.654C879.368 303.654 878.344 304.054 877.448 304.854C876.584 305.654 876.024 306.774 875.768 308.214C875.704 308.502 875.672 308.886 875.672 309.366C875.672 310.454 875.96 311.302 876.536 311.91C877.112 312.486 877.896 312.774 878.888 312.774C880.04 312.774 881.048 312.374 881.912 311.574C882.808 310.774 883.384 309.654 883.64 308.214ZM913.865 294.342C917.449 294.342 920.297 295.302 922.409 297.222C924.521 299.11 925.577 301.702 925.577 304.998C925.577 305.926 925.481 306.918 925.289 307.974C925.065 309.03 924.889 309.734 924.761 310.086H907.673C907.641 310.278 907.625 310.55 907.625 310.902C907.625 312.694 908.393 313.59 909.929 313.59C911.113 313.59 912.041 313.062 912.713 312.006H923.993C923.289 313.926 922.185 315.654 920.681 317.19C919.177 318.694 917.401 319.894 915.353 320.79C913.337 321.654 911.209 322.086 908.969 322.086C905.385 322.086 902.537 321.142 900.425 319.254C898.345 317.334 897.305 314.678 897.305 311.286C897.305 310.294 897.401 309.27 897.593 308.214C898.105 305.398 899.129 302.95 900.665 300.87C902.201 298.758 904.105 297.142 906.377 296.022C908.681 294.902 911.177 294.342 913.865 294.342ZM914.873 305.718C914.905 305.558 914.921 305.318 914.921 304.998C914.921 304.23 914.681 303.654 914.201 303.27C913.721 302.886 913.113 302.694 912.377 302.694C910.457 302.694 909.161 303.702 908.489 305.718H914.873ZM948.291 308.31L956.259 321.75H943.539L938.787 310.95L936.867 321.75H926.211L932.499 286.23H943.155L939.843 304.854L948.435 294.678H960.819L948.291 308.31ZM969.208 292.518C967.544 292.518 966.232 292.118 965.272 291.318C964.344 290.518 963.88 289.478 963.88 288.198C963.88 287.078 964.184 286.038 964.792 285.078C965.4 284.118 966.248 283.366 967.336 282.822C968.456 282.246 969.688 281.958 971.032 281.958C972.664 281.958 973.944 282.374 974.872 283.206C975.832 284.006 976.312 285.062 976.312 286.374C976.312 287.494 976.008 288.518 975.4 289.446C974.792 290.374 973.944 291.126 972.856 291.702C971.768 292.246 970.552 292.518 969.208 292.518ZM974.104 294.678L969.304 321.75H958.648L963.448 294.678H974.104ZM975.077 308.214C975.589 305.366 976.517 302.902 977.861 300.822C979.205 298.71 980.821 297.11 982.709 296.022C984.597 294.902 986.597 294.342 988.709 294.342C990.469 294.342 991.925 294.71 993.077 295.446C994.229 296.15 995.029 297.126 995.477 298.374L996.149 294.678H1006.76L1001.96 321.75H991.349L992.021 318.054C991.125 319.302 989.973 320.294 988.565 321.03C987.157 321.734 985.573 322.086 983.813 322.086C981.093 322.086 978.901 321.174 977.237 319.35C975.573 317.526 974.741 314.998 974.741 311.766C974.741 310.55 974.853 309.366 975.077 308.214ZM993.749 308.214C993.813 307.926 993.845 307.542 993.845 307.062C993.845 305.974 993.557 305.142 992.981 304.566C992.405 303.958 991.621 303.654 990.629 303.654C989.477 303.654 988.453 304.054 987.557 304.854C986.693 305.654 986.133 306.774 985.877 308.214C985.813 308.502 985.781 308.886 985.781 309.366C985.781 310.454 986.069 311.302 986.645 311.91C987.221 312.486 988.005 312.774 988.997 312.774C990.149 312.774 991.157 312.374 992.021 311.574C992.917 310.774 993.493 309.654 993.749 308.214ZM1035.06 287.766C1038.19 287.766 1040.88 288.342 1043.12 289.494C1045.36 290.614 1047.07 292.198 1048.26 294.246C1049.44 296.262 1050.03 298.598 1050.03 301.254C1050.03 302.31 1049.94 303.446 1049.75 304.662C1049.17 307.894 1047.92 310.806 1046 313.398C1044.11 315.99 1041.7 318.038 1038.75 319.542C1035.84 321.014 1032.61 321.75 1029.06 321.75H1014.9L1020.9 287.766H1035.06ZM1029.78 312.246C1032.18 312.246 1034.19 311.59 1035.83 310.278C1037.49 308.966 1038.53 307.094 1038.95 304.662C1039.04 304.022 1039.09 303.43 1039.09 302.886C1039.09 300.998 1038.5 299.558 1037.31 298.566C1036.16 297.574 1034.55 297.078 1032.47 297.078H1029.92L1027.23 312.246H1029.78ZM1051.53 308.214C1052.04 305.366 1052.97 302.902 1054.31 300.822C1055.66 298.71 1057.27 297.11 1059.16 296.022C1061.05 294.902 1063.05 294.342 1065.16 294.342C1066.92 294.342 1068.38 294.71 1069.53 295.446C1070.68 296.15 1071.48 297.126 1071.93 298.374L1072.6 294.678H1083.21L1078.41 321.75H1067.8L1068.47 318.054C1067.58 319.302 1066.43 320.294 1065.02 321.03C1063.61 321.734 1062.03 322.086 1060.27 322.086C1057.55 322.086 1055.35 321.174 1053.69 319.35C1052.03 317.526 1051.19 314.998 1051.19 311.766C1051.19 310.55 1051.31 309.366 1051.53 308.214ZM1070.2 308.214C1070.27 307.926 1070.3 307.542 1070.3 307.062C1070.3 305.974 1070.01 305.142 1069.43 304.566C1068.86 303.958 1068.07 303.654 1067.08 303.654C1065.93 303.654 1064.91 304.054 1064.01 304.854C1063.15 305.654 1062.59 306.774 1062.33 308.214C1062.27 308.502 1062.23 308.886 1062.23 309.366C1062.23 310.454 1062.52 311.302 1063.1 311.91C1063.67 312.486 1064.46 312.774 1065.45 312.774C1066.6 312.774 1067.61 312.374 1068.47 311.574C1069.37 310.774 1069.95 309.654 1070.2 308.214ZM1096.97 294.678L1099.61 308.406L1106.81 294.678H1118.57L1094.19 334.71H1082.52L1091.84 320.406L1085.12 294.678H1096.97ZM1128.06 322.086C1125.7 322.086 1123.58 321.734 1121.73 321.03C1119.9 320.326 1118.46 319.35 1117.41 318.102C1116.38 316.822 1115.87 315.366 1115.87 313.734C1115.87 313.126 1115.9 312.678 1115.97 312.39H1126.19C1126.16 313.19 1126.38 313.782 1126.86 314.166C1127.38 314.55 1128.06 314.742 1128.93 314.742C1129.47 314.742 1129.94 314.614 1130.32 314.358C1130.74 314.102 1130.94 313.798 1130.94 313.446C1130.94 312.934 1130.62 312.534 1129.98 312.246C1129.34 311.926 1128.29 311.574 1126.82 311.19C1124.96 310.678 1123.41 310.15 1122.16 309.606C1120.94 309.062 1119.87 308.262 1118.94 307.206C1118.05 306.118 1117.6 304.71 1117.6 302.982C1117.6 301.382 1118.08 299.926 1119.04 298.614C1120.03 297.27 1121.41 296.23 1123.17 295.494C1124.96 294.726 1127.02 294.342 1129.36 294.342C1131.92 294.342 1134.11 294.774 1135.94 295.638C1137.79 296.502 1139.18 297.67 1140.11 299.142C1141.04 300.614 1141.47 302.246 1141.41 304.038H1131.95C1131.95 303.302 1131.73 302.742 1131.28 302.358C1130.83 301.942 1130.18 301.734 1129.31 301.734C1128.77 301.734 1128.3 301.846 1127.92 302.07C1127.57 302.294 1127.39 302.598 1127.39 302.982C1127.39 303.462 1127.71 303.862 1128.35 304.182C1128.99 304.47 1130.08 304.854 1131.62 305.334C1133.5 305.878 1135.06 306.422 1136.27 306.966C1137.52 307.478 1138.61 308.262 1139.54 309.318C1140.46 310.342 1140.93 311.654 1140.93 313.254C1140.93 316.038 1139.73 318.214 1137.33 319.782C1134.96 321.318 1131.87 322.086 1128.06 322.086ZM1159.84 332.742C1157.95 330.566 1156.5 327.846 1155.47 324.582C1154.45 321.35 1153.94 317.782 1153.94 313.878C1153.94 309.59 1154.56 305.238 1155.81 300.822C1157.06 296.374 1158.83 292.23 1161.14 288.39C1163.47 284.55 1166.21 281.35 1169.34 278.79H1179.62L1179.42 279.798C1176.38 282.518 1173.73 285.654 1171.46 289.206C1169.18 292.758 1167.41 296.534 1166.13 300.534C1164.88 304.534 1164.26 308.518 1164.26 312.486C1164.26 316.198 1164.77 319.718 1165.79 323.046C1166.85 326.374 1168.34 329.286 1170.26 331.782L1170.11 332.742H1159.84ZM1206.54 287.766L1205.05 296.214H1196.03L1191.52 321.75H1180.86L1185.37 296.214H1176.44L1177.93 287.766H1206.54ZM1225.61 308.598L1233.09 321.75H1221.19L1217.73 315.654L1213.22 321.75H1201.51L1213.13 307.494L1205.83 294.678H1217.73L1221.19 300.822L1225.75 294.678H1237.46L1225.61 308.598ZM1237.56 304.71C1238.13 301.35 1239.33 298.358 1241.16 295.734C1242.98 293.11 1245.28 291.078 1248.07 289.638C1250.85 288.166 1253.96 287.43 1257.38 287.43C1260.32 287.43 1262.85 287.99 1264.96 289.11C1267.11 290.198 1268.74 291.75 1269.86 293.766C1270.98 295.782 1271.52 298.134 1271.49 300.822H1260.26C1259.94 299.702 1259.36 298.838 1258.53 298.23C1257.7 297.59 1256.68 297.27 1255.46 297.27C1253.67 297.27 1252.13 297.942 1250.85 299.286C1249.57 300.63 1248.74 302.438 1248.36 304.71C1248.23 305.35 1248.16 306.038 1248.16 306.774C1248.16 308.438 1248.56 309.75 1249.36 310.71C1250.2 311.67 1251.36 312.15 1252.87 312.15C1254.08 312.15 1255.22 311.846 1256.28 311.238C1257.33 310.598 1258.21 309.718 1258.92 308.598H1270.15C1269.19 311.286 1267.8 313.638 1265.97 315.654C1264.15 317.67 1261.97 319.238 1259.44 320.358C1256.95 321.446 1254.23 321.99 1251.28 321.99C1248.31 321.99 1245.76 321.446 1243.65 320.358C1241.54 319.238 1239.94 317.67 1238.85 315.654C1237.76 313.606 1237.22 311.238 1237.22 308.55C1237.22 307.238 1237.33 305.958 1237.56 304.71ZM1266.74 332.742L1266.88 331.782C1269.92 329.094 1272.59 325.958 1274.9 322.374C1277.2 318.822 1278.98 315.046 1280.22 311.046C1281.47 307.046 1282.1 303.062 1282.1 299.094C1282.1 295.382 1281.57 291.862 1280.51 288.534C1279.49 285.206 1278 282.294 1276.05 279.798L1276.24 278.79H1286.51C1288.4 280.966 1289.86 283.686 1290.88 286.95C1291.9 290.182 1292.42 293.75 1292.42 297.654C1292.42 301.942 1291.79 306.31 1290.54 310.758C1289.3 315.174 1287.5 319.302 1285.17 323.142C1282.86 326.982 1280.14 330.182 1277.01 332.742H1266.74ZM662.666 385.254C667.434 382.086 671.258 379.27 674.138 376.806C677.018 374.342 678.634 372.134 678.986 370.182C679.05 369.734 679.082 369.446 679.082 369.318C679.082 368.294 678.634 367.782 677.738 367.782C677.098 367.782 676.586 368.07 676.202 368.646C675.85 369.19 675.53 370.23 675.242 371.766H664.922C665.85 367.382 667.706 364.134 670.49 362.022C673.306 359.91 676.522 358.854 680.138 358.854C683.658 358.854 686.218 359.622 687.818 361.158C689.418 362.662 690.218 364.614 690.218 367.014C690.218 367.462 690.154 368.166 690.026 369.126C689.482 372.166 687.962 375.03 685.466 377.718C683.002 380.406 680.058 382.726 676.634 384.678H687.626L686.09 393.27H661.274L662.666 385.254ZM691.63 376.326C692.558 371.078 694.478 366.902 697.39 363.798C700.302 360.694 704.19 359.142 709.054 359.142C713.086 359.142 716.062 360.23 717.982 362.406C719.934 364.55 720.91 367.526 720.91 371.334C720.91 372.966 720.75 374.63 720.43 376.326C719.502 381.574 717.582 385.766 714.67 388.902C711.758 392.006 707.87 393.558 703.006 393.558C698.974 393.558 695.982 392.486 694.03 390.342C692.11 388.166 691.15 385.158 691.15 381.318C691.15 379.974 691.31 378.31 691.63 376.326ZM709.918 376.326C710.174 375.046 710.302 373.894 710.302 372.87C710.302 370.438 709.294 369.222 707.278 369.222C705.678 369.222 704.51 369.846 703.774 371.094C703.07 372.31 702.51 374.054 702.094 376.326C701.838 377.67 701.71 378.822 701.71 379.782C701.71 380.966 701.934 381.878 702.382 382.518C702.862 383.158 703.662 383.478 704.782 383.478C706.35 383.478 707.486 382.854 708.19 381.606C708.926 380.358 709.502 378.598 709.918 376.326ZM721.635 385.254C726.403 382.086 730.227 379.27 733.107 376.806C735.987 374.342 737.603 372.134 737.955 370.182C738.019 369.734 738.051 369.446 738.051 369.318C738.051 368.294 737.603 367.782 736.707 367.782C736.067 367.782 735.555 368.07 735.171 368.646C734.819 369.19 734.499 370.23 734.211 371.766H723.891C724.819 367.382 726.675 364.134 729.459 362.022C732.275 359.91 735.491 358.854 739.107 358.854C742.627 358.854 745.187 359.622 746.787 361.158C748.387 362.662 749.187 364.614 749.187 367.014C749.187 367.462 749.123 368.166 748.995 369.126C748.451 372.166 746.931 375.03 744.435 377.718C741.971 380.406 739.027 382.726 735.603 384.678H746.595L745.059 393.27H720.243L721.635 385.254ZM767.831 369.318C767.831 368.358 767.671 367.654 767.351 367.206C767.063 366.758 766.535 366.534 765.767 366.534C764.551 366.534 763.623 367.158 762.983 368.406C762.375 369.622 761.847 371.526 761.399 374.118C762.167 373.222 763.127 372.518 764.279 372.006C765.463 371.494 766.743 371.238 768.119 371.238C770.743 371.238 772.807 371.942 774.311 373.35C775.815 374.726 776.567 376.742 776.567 379.398C776.567 380.294 776.471 381.254 776.279 382.278C775.639 385.894 774.023 388.774 771.431 390.918C768.839 393.03 765.639 394.086 761.831 394.086C757.895 394.086 755.079 393.126 753.383 391.206C751.719 389.286 750.887 386.566 750.887 383.046C750.887 381.094 751.111 378.902 751.559 376.47C752.327 372.118 753.383 368.598 754.727 365.91C756.103 363.222 757.863 361.238 760.007 359.958C762.183 358.678 764.823 358.038 767.927 358.038C771.351 358.038 773.863 358.934 775.463 360.726C777.063 362.486 777.863 364.742 777.863 367.494C777.863 368.294 777.831 368.902 777.767 369.318H767.831ZM764.039 379.398C763.079 379.398 762.279 379.702 761.639 380.31C760.999 380.918 760.679 381.766 760.679 382.854C760.679 383.558 760.887 384.086 761.303 384.438C761.719 384.79 762.311 384.966 763.079 384.966C763.975 384.966 764.711 384.742 765.287 384.294C765.863 383.814 766.231 383.094 766.391 382.134C766.423 382.006 766.439 381.814 766.439 381.558C766.439 380.854 766.215 380.326 765.767 379.974C765.351 379.59 764.775 379.398 764.039 379.398Z" fill="white" />

<path xmlns="http://www.w3.org/2000/svg" d="M452.66 475.17C452.66 474.05 452.88 473.057 453.32 472.19C453.773 471.323 454.387 470.657 455.16 470.19C455.933 469.723 456.793 469.49 457.74 469.49C458.46 469.49 459.147 469.65 459.8 469.97C460.453 470.277 460.973 470.69 461.36 471.21V465.95H464.2V480.75H461.36V479.11C461.013 479.657 460.527 480.097 459.9 480.43C459.273 480.763 458.547 480.93 457.72 480.93C456.787 480.93 455.933 480.69 455.16 480.21C454.387 479.73 453.773 479.057 453.32 478.19C452.88 477.31 452.66 476.303 452.66 475.17ZM461.38 475.21C461.38 474.53 461.247 473.95 460.98 473.47C460.713 472.977 460.353 472.603 459.9 472.35C459.447 472.083 458.96 471.95 458.44 471.95C457.92 471.95 457.44 472.077 457 472.33C456.56 472.583 456.2 472.957 455.92 473.45C455.653 473.93 455.52 474.503 455.52 475.17C455.52 475.837 455.653 476.423 455.92 476.93C456.2 477.423 456.56 477.803 457 478.07C457.453 478.337 457.933 478.47 458.44 478.47C458.96 478.47 459.447 478.343 459.9 478.09C460.353 477.823 460.713 477.45 460.98 476.97C461.247 476.477 461.38 475.89 461.38 475.21ZM468.355 468.35C467.861 468.35 467.448 468.197 467.115 467.89C466.795 467.57 466.635 467.177 466.635 466.71C466.635 466.243 466.795 465.857 467.115 465.55C467.448 465.23 467.861 465.07 468.355 465.07C468.848 465.07 469.255 465.23 469.575 465.55C469.908 465.857 470.075 466.243 470.075 466.71C470.075 467.177 469.908 467.57 469.575 467.89C469.255 468.197 468.848 468.35 468.355 468.35ZM469.735 469.67V480.75H466.935V469.67H469.735ZM476.741 480.93C475.834 480.93 475.021 480.77 474.301 480.45C473.581 480.117 473.008 479.67 472.581 479.11C472.168 478.55 471.941 477.93 471.901 477.25H474.721C474.774 477.677 474.981 478.03 475.341 478.31C475.714 478.59 476.174 478.73 476.721 478.73C477.254 478.73 477.668 478.623 477.961 478.41C478.268 478.197 478.421 477.923 478.421 477.59C478.421 477.23 478.234 476.963 477.861 476.79C477.501 476.603 476.921 476.403 476.121 476.19C475.294 475.99 474.614 475.783 474.081 475.57C473.561 475.357 473.108 475.03 472.721 474.59C472.348 474.15 472.161 473.557 472.161 472.81C472.161 472.197 472.334 471.637 472.681 471.13C473.041 470.623 473.548 470.223 474.201 469.93C474.868 469.637 475.648 469.49 476.541 469.49C477.861 469.49 478.914 469.823 479.701 470.49C480.488 471.143 480.921 472.03 481.001 473.15H478.321C478.281 472.71 478.094 472.363 477.761 472.11C477.441 471.843 477.008 471.71 476.461 471.71C475.954 471.71 475.561 471.803 475.281 471.99C475.014 472.177 474.881 472.437 474.881 472.77C474.881 473.143 475.068 473.43 475.441 473.63C475.814 473.817 476.394 474.01 477.181 474.21C477.981 474.41 478.641 474.617 479.161 474.83C479.681 475.043 480.128 475.377 480.501 475.83C480.888 476.27 481.088 476.857 481.101 477.59C481.101 478.23 480.921 478.803 480.561 479.31C480.214 479.817 479.708 480.217 479.041 480.51C478.388 480.79 477.621 480.93 476.741 480.93ZM493.7 474.97C493.7 475.37 493.673 475.73 493.62 476.05H485.52C485.586 476.85 485.866 477.477 486.36 477.93C486.853 478.383 487.46 478.61 488.18 478.61C489.22 478.61 489.96 478.163 490.4 477.27H493.42C493.1 478.337 492.486 479.217 491.58 479.91C490.673 480.59 489.56 480.93 488.24 480.93C487.173 480.93 486.213 480.697 485.36 480.23C484.52 479.75 483.86 479.077 483.38 478.21C482.913 477.343 482.68 476.343 482.68 475.21C482.68 474.063 482.913 473.057 483.38 472.19C483.846 471.323 484.5 470.657 485.34 470.19C486.18 469.723 487.146 469.49 488.24 469.49C489.293 469.49 490.233 469.717 491.06 470.17C491.9 470.623 492.546 471.27 493 472.11C493.466 472.937 493.7 473.89 493.7 474.97ZM490.8 474.17C490.786 473.45 490.526 472.877 490.02 472.45C489.513 472.01 488.893 471.79 488.16 471.79C487.466 471.79 486.88 472.003 486.4 472.43C485.933 472.843 485.646 473.423 485.54 474.17H490.8ZM498.543 465.95V480.75H495.743V465.95H498.543ZM511.61 474.97C511.61 475.37 511.583 475.73 511.53 476.05H503.43C503.496 476.85 503.776 477.477 504.27 477.93C504.763 478.383 505.37 478.61 506.09 478.61C507.13 478.61 507.87 478.163 508.31 477.27H511.33C511.01 478.337 510.396 479.217 509.49 479.91C508.583 480.59 507.47 480.93 506.15 480.93C505.083 480.93 504.123 480.697 503.27 480.23C502.43 479.75 501.77 479.077 501.29 478.21C500.823 477.343 500.59 476.343 500.59 475.21C500.59 474.063 500.823 473.057 501.29 472.19C501.756 471.323 502.41 470.657 503.25 470.19C504.09 469.723 505.056 469.49 506.15 469.49C507.203 469.49 508.143 469.717 508.97 470.17C509.81 470.623 510.456 471.27 510.91 472.11C511.376 472.937 511.61 473.89 511.61 474.97ZM508.71 474.17C508.696 473.45 508.436 472.877 507.93 472.45C507.423 472.01 506.803 471.79 506.07 471.79C505.376 471.79 504.79 472.003 504.31 472.43C503.843 472.843 503.556 473.423 503.45 474.17H508.71ZM519.793 469.51C521.113 469.51 522.18 469.93 522.993 470.77C523.807 471.597 524.213 472.757 524.213 474.25V480.75H521.413V474.63C521.413 473.75 521.193 473.077 520.753 472.61C520.313 472.13 519.713 471.89 518.953 471.89C518.18 471.89 517.567 472.13 517.113 472.61C516.673 473.077 516.453 473.75 516.453 474.63V480.75H513.653V469.67H516.453V471.05C516.827 470.57 517.3 470.197 517.873 469.93C518.46 469.65 519.1 469.51 519.793 469.51ZM531.216 469.49C532.043 469.49 532.769 469.657 533.396 469.99C534.023 470.31 534.516 470.73 534.876 471.25V469.67H537.696V480.83C537.696 481.857 537.489 482.77 537.076 483.57C536.663 484.383 536.043 485.023 535.216 485.49C534.389 485.97 533.389 486.21 532.216 486.21C530.643 486.21 529.349 485.843 528.336 485.11C527.336 484.377 526.769 483.377 526.636 482.11H529.416C529.563 482.617 529.876 483.017 530.356 483.31C530.849 483.617 531.443 483.77 532.136 483.77C532.949 483.77 533.609 483.523 534.116 483.03C534.623 482.55 534.876 481.817 534.876 480.83V479.11C534.516 479.63 534.016 480.063 533.376 480.41C532.749 480.757 532.029 480.93 531.216 480.93C530.283 480.93 529.429 480.69 528.656 480.21C527.883 479.73 527.269 479.057 526.816 478.19C526.376 477.31 526.156 476.303 526.156 475.17C526.156 474.05 526.376 473.057 526.816 472.19C527.269 471.323 527.876 470.657 528.636 470.19C529.409 469.723 530.269 469.49 531.216 469.49ZM534.876 475.21C534.876 474.53 534.743 473.95 534.476 473.47C534.209 472.977 533.849 472.603 533.396 472.35C532.943 472.083 532.456 471.95 531.936 471.95C531.416 471.95 530.936 472.077 530.496 472.33C530.056 472.583 529.696 472.957 529.416 473.45C529.149 473.93 529.016 474.503 529.016 475.17C529.016 475.837 529.149 476.423 529.416 476.93C529.696 477.423 530.056 477.803 530.496 478.07C530.949 478.337 531.429 478.47 531.936 478.47C532.456 478.47 532.943 478.343 533.396 478.09C533.849 477.823 534.209 477.45 534.476 476.97C534.743 476.477 534.876 475.89 534.876 475.21ZM544.771 469.49C545.597 469.49 546.324 469.657 546.951 469.99C547.577 470.31 548.071 470.73 548.431 471.25V469.67H551.251V480.83C551.251 481.857 551.044 482.77 550.631 483.57C550.217 484.383 549.597 485.023 548.771 485.49C547.944 485.97 546.944 486.21 545.771 486.21C544.197 486.21 542.904 485.843 541.891 485.11C540.891 484.377 540.324 483.377 540.191 482.11H542.971C543.117 482.617 543.431 483.017 543.911 483.31C544.404 483.617 544.997 483.77 545.691 483.77C546.504 483.77 547.164 483.523 547.671 483.03C548.177 482.55 548.431 481.817 548.431 480.83V479.11C548.071 479.63 547.571 480.063 546.931 480.41C546.304 480.757 545.584 480.93 544.771 480.93C543.837 480.93 542.984 480.69 542.211 480.21C541.437 479.73 540.824 479.057 540.371 478.19C539.931 477.31 539.711 476.303 539.711 475.17C539.711 474.05 539.931 473.057 540.371 472.19C540.824 471.323 541.431 470.657 542.191 470.19C542.964 469.723 543.824 469.49 544.771 469.49ZM548.431 475.21C548.431 474.53 548.297 473.95 548.031 473.47C547.764 472.977 547.404 472.603 546.951 472.35C546.497 472.083 546.011 471.95 545.491 471.95C544.971 471.95 544.491 472.077 544.051 472.33C543.611 472.583 543.251 472.957 542.971 473.45C542.704 473.93 542.571 474.503 542.571 475.17C542.571 475.837 542.704 476.423 542.971 476.93C543.251 477.423 543.611 477.803 544.051 478.07C544.504 478.337 544.984 478.47 545.491 478.47C546.011 478.47 546.497 478.343 546.951 478.09C547.404 477.823 547.764 477.45 548.031 476.97C548.297 476.477 548.431 475.89 548.431 475.21ZM553.265 475.17C553.265 474.05 553.485 473.057 553.925 472.19C554.379 471.323 554.985 470.657 555.745 470.19C556.519 469.723 557.379 469.49 558.325 469.49C559.152 469.49 559.872 469.657 560.485 469.99C561.112 470.323 561.612 470.743 561.985 471.25V469.67H564.805V480.75H561.985V479.13C561.625 479.65 561.125 480.083 560.485 480.43C559.859 480.763 559.132 480.93 558.305 480.93C557.372 480.93 556.519 480.69 555.745 480.21C554.985 479.73 554.379 479.057 553.925 478.19C553.485 477.31 553.265 476.303 553.265 475.17ZM561.985 475.21C561.985 474.53 561.852 473.95 561.585 473.47C561.319 472.977 560.959 472.603 560.505 472.35C560.052 472.083 559.565 471.95 559.045 471.95C558.525 471.95 558.045 472.077 557.605 472.33C557.165 472.583 556.805 472.957 556.525 473.45C556.259 473.93 556.125 474.503 556.125 475.17C556.125 475.837 556.259 476.423 556.525 476.93C556.805 477.423 557.165 477.803 557.605 478.07C558.059 478.337 558.539 478.47 559.045 478.47C559.565 478.47 560.052 478.343 560.505 478.09C560.959 477.823 561.319 477.45 561.585 476.97C561.852 476.477 561.985 475.89 561.985 475.21ZM570.34 471.39C570.7 470.803 571.167 470.343 571.74 470.01C572.327 469.677 572.993 469.51 573.74 469.51V472.45H573C572.12 472.45 571.453 472.657 571 473.07C570.56 473.483 570.34 474.203 570.34 475.23V480.75H567.54V469.67H570.34V471.39ZM574.906 475.17C574.906 474.05 575.126 473.057 575.566 472.19C576.019 471.323 576.626 470.657 577.386 470.19C578.159 469.723 579.019 469.49 579.966 469.49C580.793 469.49 581.513 469.657 582.126 469.99C582.753 470.323 583.253 470.743 583.626 471.25V469.67H586.446V480.75H583.626V479.13C583.266 479.65 582.766 480.083 582.126 480.43C581.499 480.763 580.773 480.93 579.946 480.93C579.013 480.93 578.159 480.69 577.386 480.21C576.626 479.73 576.019 479.057 575.566 478.19C575.126 477.31 574.906 476.303 574.906 475.17ZM583.626 475.21C583.626 474.53 583.493 473.95 583.226 473.47C582.959 472.977 582.599 472.603 582.146 472.35C581.693 472.083 581.206 471.95 580.686 471.95C580.166 471.95 579.686 472.077 579.246 472.33C578.806 472.583 578.446 472.957 578.166 473.45C577.899 473.93 577.766 474.503 577.766 475.17C577.766 475.837 577.899 476.423 578.166 476.93C578.446 477.423 578.806 477.803 579.246 478.07C579.699 478.337 580.179 478.47 580.686 478.47C581.206 478.47 581.693 478.343 582.146 478.09C582.599 477.823 582.959 477.45 583.226 476.97C583.493 476.477 583.626 475.89 583.626 475.21ZM595.741 480.75L591.981 476.03V480.75H589.181V465.95H591.981V474.37L595.701 469.67H599.341L594.461 475.23L599.381 480.75H595.741ZM600.14 475.17C600.14 474.05 600.36 473.057 600.8 472.19C601.254 471.323 601.86 470.657 602.62 470.19C603.394 469.723 604.254 469.49 605.2 469.49C606.027 469.49 606.747 469.657 607.36 469.99C607.987 470.323 608.487 470.743 608.86 471.25V469.67H611.68V480.75H608.86V479.13C608.5 479.65 608 480.083 607.36 480.43C606.734 480.763 606.007 480.93 605.18 480.93C604.247 480.93 603.394 480.69 602.62 480.21C601.86 479.73 601.254 479.057 600.8 478.19C600.36 477.31 600.14 476.303 600.14 475.17ZM608.86 475.21C608.86 474.53 608.727 473.95 608.46 473.47C608.194 472.977 607.834 472.603 607.38 472.35C606.927 472.083 606.44 471.95 605.92 471.95C605.4 471.95 604.92 472.077 604.48 472.33C604.04 472.583 603.68 472.957 603.4 473.45C603.134 473.93 603 474.503 603 475.17C603 475.837 603.134 476.423 603.4 476.93C603.68 477.423 604.04 477.803 604.48 478.07C604.934 478.337 605.414 478.47 605.92 478.47C606.44 478.47 606.927 478.343 607.38 478.09C607.834 477.823 608.194 477.45 608.46 476.97C608.727 476.477 608.86 475.89 608.86 475.21ZM620.555 469.51C621.875 469.51 622.942 469.93 623.755 470.77C624.568 471.597 624.975 472.757 624.975 474.25V480.75H622.175V474.63C622.175 473.75 621.955 473.077 621.515 472.61C621.075 472.13 620.475 471.89 619.715 471.89C618.942 471.89 618.328 472.13 617.875 472.61C617.435 473.077 617.215 473.75 617.215 474.63V480.75H614.415V469.67H617.215V471.05C617.588 470.57 618.062 470.197 618.635 469.93C619.222 469.65 619.862 469.51 620.555 469.51ZM646.163 469.51C647.523 469.51 648.617 469.93 649.443 470.77C650.283 471.597 650.703 472.757 650.703 474.25V480.75H647.903V474.63C647.903 473.763 647.683 473.103 647.243 472.65C646.803 472.183 646.203 471.95 645.443 471.95C644.683 471.95 644.077 472.183 643.623 472.65C643.183 473.103 642.963 473.763 642.963 474.63V480.75H640.163V474.63C640.163 473.763 639.943 473.103 639.503 472.65C639.063 472.183 638.463 471.95 637.703 471.95C636.93 471.95 636.317 472.183 635.863 472.65C635.423 473.103 635.203 473.763 635.203 474.63V480.75H632.403V469.67H635.203V471.01C635.563 470.543 636.023 470.177 636.583 469.91C637.157 469.643 637.783 469.51 638.463 469.51C639.33 469.51 640.103 469.697 640.783 470.07C641.463 470.43 641.99 470.95 642.363 471.63C642.723 470.99 643.243 470.477 643.923 470.09C644.617 469.703 645.363 469.51 646.163 469.51ZM663.66 474.97C663.66 475.37 663.634 475.73 663.58 476.05H655.48C655.547 476.85 655.827 477.477 656.32 477.93C656.814 478.383 657.42 478.61 658.14 478.61C659.18 478.61 659.92 478.163 660.36 477.27H663.38C663.06 478.337 662.447 479.217 661.54 479.91C660.634 480.59 659.52 480.93 658.2 480.93C657.134 480.93 656.174 480.697 655.32 480.23C654.48 479.75 653.82 479.077 653.34 478.21C652.874 477.343 652.64 476.343 652.64 475.21C652.64 474.063 652.874 473.057 653.34 472.19C653.807 471.323 654.46 470.657 655.3 470.19C656.14 469.723 657.107 469.49 658.2 469.49C659.254 469.49 660.194 469.717 661.02 470.17C661.86 470.623 662.507 471.27 662.96 472.11C663.427 472.937 663.66 473.89 663.66 474.97ZM660.76 474.17C660.747 473.45 660.487 472.877 659.98 472.45C659.474 472.01 658.854 471.79 658.12 471.79C657.427 471.79 656.84 472.003 656.36 472.43C655.894 472.843 655.607 473.423 655.5 474.17H660.76ZM668.504 465.95V480.75H665.704V465.95H668.504ZM670.551 475.17C670.551 474.05 670.771 473.057 671.211 472.19C671.664 471.323 672.271 470.657 673.031 470.19C673.804 469.723 674.664 469.49 675.611 469.49C676.437 469.49 677.157 469.657 677.771 469.99C678.397 470.323 678.897 470.743 679.271 471.25V469.67H682.091V480.75H679.271V479.13C678.911 479.65 678.411 480.083 677.771 480.43C677.144 480.763 676.417 480.93 675.591 480.93C674.657 480.93 673.804 480.69 673.031 480.21C672.271 479.73 671.664 479.057 671.211 478.19C670.771 477.31 670.551 476.303 670.551 475.17ZM679.271 475.21C679.271 474.53 679.137 473.95 678.871 473.47C678.604 472.977 678.244 472.603 677.791 472.35C677.337 472.083 676.851 471.95 676.331 471.95C675.811 471.95 675.331 472.077 674.891 472.33C674.451 472.583 674.091 472.957 673.811 473.45C673.544 473.93 673.411 474.503 673.411 475.17C673.411 475.837 673.544 476.423 673.811 476.93C674.091 477.423 674.451 477.803 674.891 478.07C675.344 478.337 675.824 478.47 676.331 478.47C676.851 478.47 677.337 478.343 677.791 478.09C678.244 477.823 678.604 477.45 678.871 476.97C679.137 476.477 679.271 475.89 679.271 475.21ZM687.625 465.95V480.75H684.825V465.95H687.625ZM700.852 469.67V480.75H698.032V479.35C697.672 479.83 697.198 480.21 696.612 480.49C696.038 480.757 695.412 480.89 694.732 480.89C693.865 480.89 693.098 480.71 692.432 480.35C691.765 479.977 691.238 479.437 690.852 478.73C690.478 478.01 690.292 477.157 690.292 476.17V469.67H693.092V475.77C693.092 476.65 693.312 477.33 693.752 477.81C694.192 478.277 694.792 478.51 695.552 478.51C696.325 478.51 696.932 478.277 697.372 477.81C697.812 477.33 698.032 476.65 698.032 475.77V469.67H700.852ZM705.034 468.35C704.541 468.35 704.128 468.197 703.794 467.89C703.474 467.57 703.314 467.177 703.314 466.71C703.314 466.243 703.474 465.857 703.794 465.55C704.128 465.23 704.541 465.07 705.034 465.07C705.528 465.07 705.934 465.23 706.254 465.55C706.588 465.857 706.754 466.243 706.754 466.71C706.754 467.177 706.588 467.57 706.254 467.89C705.934 468.197 705.528 468.35 705.034 468.35ZM706.414 469.67V480.75H703.614V469.67H706.414ZM720.506 480.75L716.746 476.03V480.75H713.946V465.95H716.746V474.37L720.466 469.67H724.106L719.226 475.23L724.146 480.75H720.506ZM730.546 480.93C729.479 480.93 728.519 480.697 727.666 480.23C726.813 479.75 726.139 479.077 725.646 478.21C725.166 477.343 724.926 476.343 724.926 475.21C724.926 474.077 725.173 473.077 725.666 472.21C726.173 471.343 726.859 470.677 727.726 470.21C728.593 469.73 729.559 469.49 730.626 469.49C731.693 469.49 732.659 469.73 733.526 470.21C734.393 470.677 735.073 471.343 735.566 472.21C736.073 473.077 736.326 474.077 736.326 475.21C736.326 476.343 736.066 477.343 735.546 478.21C735.039 479.077 734.346 479.75 733.466 480.23C732.599 480.697 731.626 480.93 730.546 480.93ZM730.546 478.49C731.053 478.49 731.526 478.37 731.966 478.13C732.419 477.877 732.779 477.503 733.046 477.01C733.313 476.517 733.446 475.917 733.446 475.21C733.446 474.157 733.166 473.35 732.606 472.79C732.059 472.217 731.386 471.93 730.586 471.93C729.786 471.93 729.113 472.217 728.566 472.79C728.033 473.35 727.766 474.157 727.766 475.21C727.766 476.263 728.026 477.077 728.546 477.65C729.079 478.21 729.746 478.49 730.546 478.49ZM741.18 465.95V480.75H738.38V465.95H741.18ZM743.226 475.17C743.226 474.05 743.446 473.057 743.886 472.19C744.34 471.323 744.946 470.657 745.706 470.19C746.48 469.723 747.34 469.49 748.286 469.49C749.113 469.49 749.833 469.657 750.446 469.99C751.073 470.323 751.573 470.743 751.946 471.25V469.67H754.766V480.75H751.946V479.13C751.586 479.65 751.086 480.083 750.446 480.43C749.82 480.763 749.093 480.93 748.266 480.93C747.333 480.93 746.48 480.69 745.706 480.21C744.946 479.73 744.34 479.057 743.886 478.19C743.446 477.31 743.226 476.303 743.226 475.17ZM751.946 475.21C751.946 474.53 751.813 473.95 751.546 473.47C751.28 472.977 750.92 472.603 750.466 472.35C750.013 472.083 749.526 471.95 749.006 471.95C748.486 471.95 748.006 472.077 747.566 472.33C747.126 472.583 746.766 472.957 746.486 473.45C746.22 473.93 746.086 474.503 746.086 475.17C746.086 475.837 746.22 476.423 746.486 476.93C746.766 477.423 747.126 477.803 747.566 478.07C748.02 478.337 748.5 478.47 749.006 478.47C749.526 478.47 750.013 478.343 750.466 478.09C750.92 477.823 751.28 477.45 751.546 476.97C751.813 476.477 751.946 475.89 751.946 475.21ZM760.301 471.29C760.661 470.757 761.154 470.323 761.781 469.99C762.421 469.657 763.148 469.49 763.961 469.49C764.908 469.49 765.761 469.723 766.521 470.19C767.294 470.657 767.901 471.323 768.341 472.19C768.794 473.043 769.021 474.037 769.021 475.17C769.021 476.303 768.794 477.31 768.341 478.19C767.901 479.057 767.294 479.73 766.521 480.21C765.761 480.69 764.908 480.93 763.961 480.93C763.134 480.93 762.408 480.77 761.781 480.45C761.168 480.117 760.674 479.69 760.301 479.17V480.75H757.501V465.95H760.301V471.29ZM766.161 475.17C766.161 474.503 766.021 473.93 765.741 473.45C765.474 472.957 765.114 472.583 764.661 472.33C764.221 472.077 763.741 471.95 763.221 471.95C762.714 471.95 762.234 472.083 761.781 472.35C761.341 472.603 760.981 472.977 760.701 473.47C760.434 473.963 760.301 474.543 760.301 475.21C760.301 475.877 760.434 476.457 760.701 476.95C760.981 477.443 761.341 477.823 761.781 478.09C762.234 478.343 762.714 478.47 763.221 478.47C763.741 478.47 764.221 478.337 764.661 478.07C765.114 477.803 765.474 477.423 765.741 476.93C766.021 476.437 766.161 475.85 766.161 475.17ZM775.976 480.93C774.909 480.93 773.949 480.697 773.096 480.23C772.242 479.75 771.569 479.077 771.076 478.21C770.596 477.343 770.356 476.343 770.356 475.21C770.356 474.077 770.602 473.077 771.096 472.21C771.602 471.343 772.289 470.677 773.156 470.21C774.022 469.73 774.989 469.49 776.056 469.49C777.122 469.49 778.089 469.73 778.956 470.21C779.822 470.677 780.502 471.343 780.996 472.21C781.502 473.077 781.756 474.077 781.756 475.21C781.756 476.343 781.496 477.343 780.976 478.21C780.469 479.077 779.776 479.75 778.896 480.23C778.029 480.697 777.056 480.93 775.976 480.93ZM775.976 478.49C776.482 478.49 776.956 478.37 777.396 478.13C777.849 477.877 778.209 477.503 778.476 477.01C778.742 476.517 778.876 475.917 778.876 475.21C778.876 474.157 778.596 473.35 778.036 472.79C777.489 472.217 776.816 471.93 776.016 471.93C775.216 471.93 774.542 472.217 773.996 472.79C773.462 473.35 773.196 474.157 773.196 475.21C773.196 476.263 773.456 477.077 773.976 477.65C774.509 478.21 775.176 478.49 775.976 478.49ZM786.61 471.39C786.97 470.803 787.436 470.343 788.01 470.01C788.596 469.677 789.263 469.51 790.01 469.51V472.45H789.27C788.39 472.45 787.723 472.657 787.27 473.07C786.83 473.483 786.61 474.203 786.61 475.23V480.75H783.81V469.67H786.61V471.39ZM791.176 475.17C791.176 474.05 791.396 473.057 791.836 472.19C792.289 471.323 792.896 470.657 793.656 470.19C794.429 469.723 795.289 469.49 796.236 469.49C797.062 469.49 797.782 469.657 798.396 469.99C799.022 470.323 799.522 470.743 799.896 471.25V469.67H802.716V480.75H799.896V479.13C799.536 479.65 799.036 480.083 798.396 480.43C797.769 480.763 797.042 480.93 796.216 480.93C795.282 480.93 794.429 480.69 793.656 480.21C792.896 479.73 792.289 479.057 791.836 478.19C791.396 477.31 791.176 476.303 791.176 475.17ZM799.896 475.21C799.896 474.53 799.762 473.95 799.496 473.47C799.229 472.977 798.869 472.603 798.416 472.35C797.962 472.083 797.476 471.95 796.956 471.95C796.436 471.95 795.956 472.077 795.516 472.33C795.076 472.583 794.716 472.957 794.436 473.45C794.169 473.93 794.036 474.503 794.036 475.17C794.036 475.837 794.169 476.423 794.436 476.93C794.716 477.423 795.076 477.803 795.516 478.07C795.969 478.337 796.449 478.47 796.956 478.47C797.476 478.47 797.962 478.343 798.416 478.09C798.869 477.823 799.229 477.45 799.496 476.97C799.762 476.477 799.896 475.89 799.896 475.21ZM809.69 480.93C808.784 480.93 807.97 480.77 807.25 480.45C806.53 480.117 805.957 479.67 805.53 479.11C805.117 478.55 804.89 477.93 804.85 477.25H807.67C807.724 477.677 807.93 478.03 808.29 478.31C808.664 478.59 809.124 478.73 809.67 478.73C810.204 478.73 810.617 478.623 810.91 478.41C811.217 478.197 811.37 477.923 811.37 477.59C811.37 477.23 811.184 476.963 810.81 476.79C810.45 476.603 809.87 476.403 809.07 476.19C808.244 475.99 807.564 475.783 807.03 475.57C806.51 475.357 806.057 475.03 805.67 474.59C805.297 474.15 805.11 473.557 805.11 472.81C805.11 472.197 805.284 471.637 805.63 471.13C805.99 470.623 806.497 470.223 807.15 469.93C807.817 469.637 808.597 469.49 809.49 469.49C810.81 469.49 811.864 469.823 812.65 470.49C813.437 471.143 813.87 472.03 813.95 473.15H811.27C811.23 472.71 811.044 472.363 810.71 472.11C810.39 471.843 809.957 471.71 809.41 471.71C808.904 471.71 808.51 471.803 808.23 471.99C807.964 472.177 807.83 472.437 807.83 472.77C807.83 473.143 808.017 473.43 808.39 473.63C808.764 473.817 809.344 474.01 810.13 474.21C810.93 474.41 811.59 474.617 812.11 474.83C812.63 475.043 813.077 475.377 813.45 475.83C813.837 476.27 814.037 476.857 814.05 477.59C814.05 478.23 813.87 478.803 813.51 479.31C813.164 479.817 812.657 480.217 811.99 480.51C811.337 480.79 810.57 480.93 809.69 480.93ZM817.769 468.35C817.275 468.35 816.862 468.197 816.529 467.89C816.209 467.57 816.049 467.177 816.049 466.71C816.049 466.243 816.209 465.857 816.529 465.55C816.862 465.23 817.275 465.07 817.769 465.07C818.262 465.07 818.669 465.23 818.989 465.55C819.322 465.857 819.489 466.243 819.489 466.71C819.489 467.177 819.322 467.57 818.989 467.89C818.669 468.197 818.262 468.35 817.769 468.35ZM819.149 469.67V480.75H816.349V469.67H819.149ZM837.281 469.67L830.421 485.99H827.441L829.841 480.47L825.401 469.67H828.541L831.401 477.41L834.301 469.67H837.281ZM838.07 475.17C838.07 474.05 838.29 473.057 838.73 472.19C839.183 471.323 839.79 470.657 840.55 470.19C841.323 469.723 842.183 469.49 843.13 469.49C843.957 469.49 844.677 469.657 845.29 469.99C845.917 470.323 846.417 470.743 846.79 471.25V469.67H849.61V480.75H846.79V479.13C846.43 479.65 845.93 480.083 845.29 480.43C844.663 480.763 843.937 480.93 843.11 480.93C842.177 480.93 841.323 480.69 840.55 480.21C839.79 479.73 839.183 479.057 838.73 478.19C838.29 477.31 838.07 476.303 838.07 475.17ZM846.79 475.21C846.79 474.53 846.657 473.95 846.39 473.47C846.123 472.977 845.763 472.603 845.31 472.35C844.857 472.083 844.37 471.95 843.85 471.95C843.33 471.95 842.85 472.077 842.41 472.33C841.97 472.583 841.61 472.957 841.33 473.45C841.063 473.93 840.93 474.503 840.93 475.17C840.93 475.837 841.063 476.423 841.33 476.93C841.61 477.423 841.97 477.803 842.41 478.07C842.863 478.337 843.343 478.47 843.85 478.47C844.37 478.47 844.857 478.343 845.31 478.09C845.763 477.823 846.123 477.45 846.39 476.97C846.657 476.477 846.79 475.89 846.79 475.21ZM858.485 469.51C859.805 469.51 860.872 469.93 861.685 470.77C862.498 471.597 862.905 472.757 862.905 474.25V480.75H860.105V474.63C860.105 473.75 859.885 473.077 859.445 472.61C859.005 472.13 858.405 471.89 857.645 471.89C856.872 471.89 856.258 472.13 855.805 472.61C855.365 473.077 855.145 473.75 855.145 474.63V480.75H852.345V469.67H855.145V471.05C855.518 470.57 855.992 470.197 856.565 469.93C857.152 469.65 857.792 469.51 858.485 469.51ZM869.908 469.49C870.734 469.49 871.461 469.657 872.088 469.99C872.714 470.31 873.208 470.73 873.568 471.25V469.67H876.388V480.83C876.388 481.857 876.181 482.77 875.768 483.57C875.354 484.383 874.734 485.023 873.908 485.49C873.081 485.97 872.081 486.21 870.908 486.21C869.334 486.21 868.041 485.843 867.028 485.11C866.028 484.377 865.461 483.377 865.328 482.11H868.108C868.254 482.617 868.568 483.017 869.048 483.31C869.541 483.617 870.134 483.77 870.828 483.77C871.641 483.77 872.301 483.523 872.808 483.03C873.314 482.55 873.568 481.817 873.568 480.83V479.11C873.208 479.63 872.708 480.063 872.068 480.41C871.441 480.757 870.721 480.93 869.908 480.93C868.974 480.93 868.121 480.69 867.348 480.21C866.574 479.73 865.961 479.057 865.507 478.19C865.067 477.31 864.847 476.303 864.847 475.17C864.847 474.05 865.067 473.057 865.507 472.19C865.961 471.323 866.568 470.657 867.328 470.19C868.101 469.723 868.961 469.49 869.908 469.49ZM873.568 475.21C873.568 474.53 873.434 473.95 873.168 473.47C872.901 472.977 872.541 472.603 872.088 472.35C871.634 472.083 871.148 471.95 870.628 471.95C870.108 471.95 869.628 472.077 869.188 472.33C868.748 472.583 868.388 472.957 868.108 473.45C867.841 473.93 867.708 474.503 867.708 475.17C867.708 475.837 867.841 476.423 868.108 476.93C868.388 477.423 868.748 477.803 869.188 478.07C869.641 478.337 870.121 478.47 870.628 478.47C871.148 478.47 871.634 478.343 872.088 478.09C872.541 477.823 872.901 477.45 873.168 476.97C873.434 476.477 873.568 475.89 873.568 475.21ZM886.688 465.95V480.75H883.888V465.95H886.688ZM899.914 469.67V480.75H897.094V479.35C896.734 479.83 896.261 480.21 895.674 480.49C895.101 480.757 894.474 480.89 893.794 480.89C892.928 480.89 892.161 480.71 891.494 480.35C890.828 479.977 890.301 479.437 889.914 478.73C889.541 478.01 889.354 477.157 889.354 476.17V469.67H892.154V475.77C892.154 476.65 892.374 477.33 892.814 477.81C893.254 478.277 893.854 478.51 894.614 478.51C895.388 478.51 895.994 478.277 896.434 477.81C896.874 477.33 897.094 476.65 897.094 475.77V469.67H899.914ZM901.957 475.17C901.957 474.05 902.177 473.057 902.617 472.19C903.07 471.323 903.677 470.657 904.437 470.19C905.21 469.723 906.07 469.49 907.017 469.49C907.844 469.49 908.564 469.657 909.177 469.99C909.804 470.323 910.304 470.743 910.677 471.25V469.67H913.497V480.75H910.677V479.13C910.317 479.65 909.817 480.083 909.177 480.43C908.55 480.763 907.824 480.93 906.997 480.93C906.064 480.93 905.21 480.69 904.437 480.21C903.677 479.73 903.07 479.057 902.617 478.19C902.177 477.31 901.957 476.303 901.957 475.17ZM910.677 475.21C910.677 474.53 910.544 473.95 910.277 473.47C910.01 472.977 909.65 472.603 909.197 472.35C908.744 472.083 908.257 471.95 907.737 471.95C907.217 471.95 906.737 472.077 906.297 472.33C905.857 472.583 905.497 472.957 905.217 473.45C904.95 473.93 904.817 474.503 904.817 475.17C904.817 475.837 904.95 476.423 905.217 476.93C905.497 477.423 905.857 477.803 906.297 478.07C906.75 478.337 907.23 478.47 907.737 478.47C908.257 478.47 908.744 478.343 909.197 478.09C909.65 477.823 910.01 477.45 910.277 476.97C910.544 476.477 910.677 475.89 910.677 475.21ZM919.032 471.39C919.392 470.803 919.858 470.343 920.432 470.01C921.018 469.677 921.685 469.51 922.432 469.51V472.45H921.692C920.812 472.45 920.145 472.657 919.692 473.07C919.252 473.483 919.032 474.203 919.032 475.23V480.75H916.232V469.67H919.032V471.39ZM931.883 471.29C932.243 470.757 932.736 470.323 933.363 469.99C934.003 469.657 934.73 469.49 935.543 469.49C936.49 469.49 937.343 469.723 938.103 470.19C938.876 470.657 939.483 471.323 939.923 472.19C940.376 473.043 940.603 474.037 940.603 475.17C940.603 476.303 940.376 477.31 939.923 478.19C939.483 479.057 938.876 479.73 938.103 480.21C937.343 480.69 936.49 480.93 935.543 480.93C934.716 480.93 933.99 480.77 933.363 480.45C932.75 480.117 932.256 479.69 931.883 479.17V480.75H929.083V465.95H931.883V471.29ZM937.743 475.17C937.743 474.503 937.603 473.93 937.323 473.45C937.056 472.957 936.696 472.583 936.243 472.33C935.803 472.077 935.323 471.95 934.803 471.95C934.296 471.95 933.816 472.083 933.363 472.35C932.923 472.603 932.563 472.977 932.283 473.47C932.016 473.963 931.883 474.543 931.883 475.21C931.883 475.877 932.016 476.457 932.283 476.95C932.563 477.443 932.923 477.823 933.363 478.09C933.816 478.343 934.296 478.47 934.803 478.47C935.323 478.47 935.803 478.337 936.243 478.07C936.696 477.803 937.056 477.423 937.323 476.93C937.603 476.437 937.743 475.85 937.743 475.17ZM944.058 468.35C943.564 468.35 943.151 468.197 942.818 467.89C942.498 467.57 942.338 467.177 942.338 466.71C942.338 466.243 942.498 465.857 942.818 465.55C943.151 465.23 943.564 465.07 944.058 465.07C944.551 465.07 944.958 465.23 945.278 465.55C945.611 465.857 945.778 466.243 945.778 466.71C945.778 467.177 945.611 467.57 945.278 467.89C944.958 468.197 944.551 468.35 944.058 468.35ZM945.438 469.67V480.75H942.638V469.67H945.438ZM947.484 475.17C947.484 474.05 947.704 473.057 948.144 472.19C948.598 471.323 949.204 470.657 949.964 470.19C950.738 469.723 951.598 469.49 952.544 469.49C953.371 469.49 954.091 469.657 954.704 469.99C955.331 470.323 955.831 470.743 956.204 471.25V469.67H959.024V480.75H956.204V479.13C955.844 479.65 955.344 480.083 954.704 480.43C954.078 480.763 953.351 480.93 952.524 480.93C951.591 480.93 950.738 480.69 949.964 480.21C949.204 479.73 948.598 479.057 948.144 478.19C947.704 477.31 947.484 476.303 947.484 475.17ZM956.204 475.21C956.204 474.53 956.071 473.95 955.804 473.47C955.538 472.977 955.178 472.603 954.724 472.35C954.271 472.083 953.784 471.95 953.264 471.95C952.744 471.95 952.264 472.077 951.824 472.33C951.384 472.583 951.024 472.957 950.744 473.45C950.478 473.93 950.344 474.503 950.344 475.17C950.344 475.837 950.478 476.423 950.744 476.93C951.024 477.423 951.384 477.803 951.824 478.07C952.278 478.337 952.758 478.47 953.264 478.47C953.784 478.47 954.271 478.343 954.724 478.09C955.178 477.823 955.538 477.45 955.804 476.97C956.071 476.477 956.204 475.89 956.204 475.21ZM965.999 480.93C965.092 480.93 964.279 480.77 963.559 480.45C962.839 480.117 962.266 479.67 961.839 479.11C961.426 478.55 961.199 477.93 961.159 477.25H963.979C964.032 477.677 964.239 478.03 964.599 478.31C964.972 478.59 965.432 478.73 965.979 478.73C966.512 478.73 966.926 478.623 967.219 478.41C967.526 478.197 967.679 477.923 967.679 477.59C967.679 477.23 967.492 476.963 967.119 476.79C966.759 476.603 966.179 476.403 965.379 476.19C964.552 475.99 963.872 475.783 963.339 475.57C962.819 475.357 962.366 475.03 961.979 474.59C961.606 474.15 961.419 473.557 961.419 472.81C961.419 472.197 961.592 471.637 961.939 471.13C962.299 470.623 962.806 470.223 963.459 469.93C964.126 469.637 964.906 469.49 965.799 469.49C967.119 469.49 968.172 469.823 968.959 470.49C969.746 471.143 970.179 472.03 970.259 473.15H967.579C967.539 472.71 967.352 472.363 967.019 472.11C966.699 471.843 966.266 471.71 965.719 471.71C965.212 471.71 964.819 471.803 964.539 471.99C964.272 472.177 964.139 472.437 964.139 472.77C964.139 473.143 964.326 473.43 964.699 473.63C965.072 473.817 965.652 474.01 966.439 474.21C967.239 474.41 967.899 474.617 968.419 474.83C968.939 475.043 969.386 475.377 969.759 475.83C970.146 476.27 970.346 476.857 970.359 477.59C970.359 478.23 970.179 478.803 969.819 479.31C969.472 479.817 968.966 480.217 968.299 480.51C967.646 480.79 966.879 480.93 965.999 480.93ZM971.937 475.17C971.937 474.05 972.157 473.057 972.597 472.19C973.051 471.323 973.657 470.657 974.417 470.19C975.191 469.723 976.051 469.49 976.997 469.49C977.824 469.49 978.544 469.657 979.157 469.99C979.784 470.323 980.284 470.743 980.657 471.25V469.67H983.477V480.75H980.657V479.13C980.297 479.65 979.797 480.083 979.157 480.43C978.531 480.763 977.804 480.93 976.977 480.93C976.044 480.93 975.191 480.69 974.417 480.21C973.657 479.73 973.051 479.057 972.597 478.19C972.157 477.31 971.937 476.303 971.937 475.17ZM980.657 475.21C980.657 474.53 980.524 473.95 980.257 473.47C979.991 472.977 979.631 472.603 979.177 472.35C978.724 472.083 978.237 471.95 977.717 471.95C977.197 471.95 976.717 472.077 976.277 472.33C975.837 472.583 975.477 472.957 975.197 473.45C974.931 473.93 974.797 474.503 974.797 475.17C974.797 475.837 974.931 476.423 975.197 476.93C975.477 477.423 975.837 477.803 976.277 478.07C976.731 478.337 977.211 478.47 977.717 478.47C978.237 478.47 978.724 478.343 979.177 478.09C979.631 477.823 979.991 477.45 980.257 476.97C980.524 476.477 980.657 475.89 980.657 475.21Z" fill="white" />

</svg>
